<svg width="250" height="250" viewBox="0 0 250 250" fill="none" xmlns="http://www.w3.org/2000/svg">
<g clip-path="url(#clip0_906_630)">
<path fill-rule="evenodd" clip-rule="evenodd" d="M142.842 1.92523e-09C182.866 0.000277293 190.749 1.92523e-09 190.749 1.92523e-09C244.113 1.92523e-09 244.72 123.567 190.749 122.87C143.448 122.258 141.023 122.258 141.023 122.258V199.892C141.023 330.495 -61.5224 168.995 53.1679 130.083C47.6067 160.379 71.408 199.892 102.818 199.892V122.258C82.0265 123.041 65.7026 125.83 53.1679 130.083C56.6254 111.246 71.4329 95.9727 102.818 95.9727V29.9533C102.818 29.9533 102.818 -0.00027729 142.842 1.92523e-09ZM142.842 95.9727V29.9533C190.749 29.9533 190.749 42.7904 190.749 62.9632C190.749 86.213 190.749 95.9727 142.842 95.9727Z" fill="url(#paint0_linear_906_630)"/>
<path d="M102.818 95.9727C71.4329 95.9727 56.6254 111.246 53.1679 130.083M102.818 95.9727C102.818 95.9727 102.818 59.9066 102.818 29.9533M102.818 95.9727V29.9533M53.1679 130.083C-61.5224 168.995 141.023 330.495 141.023 199.892V122.258C141.023 122.258 143.448 122.258 190.749 122.87C244.72 123.567 244.113 1.92523e-09 190.749 1.92523e-09C190.749 1.92523e-09 182.866 0.000277293 142.842 1.92523e-09C102.818 -0.00027729 102.818 29.9533 102.818 29.9533M53.1679 130.083C47.6067 160.379 71.408 199.892 102.818 199.892V122.258C82.0265 123.041 65.7026 125.83 53.1679 130.083ZM142.842 29.9533V95.9727C190.749 95.9727 190.749 86.213 190.749 62.9632C190.749 42.7904 190.749 29.9533 142.842 29.9533Z" stroke="#6B03FC" stroke-linejoin="round"/>
</g>
<defs>
<linearGradient id="paint0_linear_906_630" x1="133.746" y1="165.66" x2="-2.90485" y2="121.678" gradientUnits="userSpaceOnUse">
<stop stop-color="#6B03FC"/>
<stop offset="1" stop-color="white"/>
</linearGradient>
<clipPath id="clip0_906_630">
<rect width="250" height="250" fill="white"/>
</clipPath>
</defs>
</svg>
